<svg id="canvas" height="auto" xmlns="http://www.w3.org/2000/svg" version="1.1" xmlns:xlink="http://www.w3.org/1999/xlink" viewBox="0 0 900 512" width="auto" style="width: auto; height: auto;"><rect width="900" height="512" fill="#ffffffff"/><path d="M-450,-219.96614668849742C-402.69656529413066,-215.90658012412644,-251.7573065485896,-210.1305215037811,-166.17939176478407,-195.60874730227155C-80.60147698097852,-181.086973100762,-27.27894613588569,-150.61848812132547,63.467488702833336,-132.83550147944013C154.21392354155236,-115.05251483755477,288.3825765770299,-109.96796872267839,378.29921726753,-88.91082745095943C468.21585795803014,-67.85368617924047,516.0172023904224,-27.31676730953668,602.9673328458341,-6.4926538491263415C689.9174633012458,14.331459611283996,850.4945554743057,28.94610211806444,900,36.0338533115026L 900 512 L -450 512 Z" fill="#336666"/><path d="M-450,-158.3400165134522C-406.80152747908767,-147.01278653388567,-283.260881821962,-107.38565800548183,-190.80916487452592,-90.37663663605301C-98.3574479270898,-73.36761526662418,10.75630950445482,-70.18739196612968,104.71030168461681,-56.28588829687927C198.6642938647788,-42.38438462762887,280.7247685981683,-26.56506351191593,372.914788206446,-6.967614620550574C465.10480781472376,12.629834270814783,570.0028840353575,37.050459335050455,657.8504193342832,61.298805051312875C745.6979546332088,85.54715076757529,859.6417365557138,125.65185057273878,900,138.52245967702396L 900 512 L -450 512 Z" fill="#ff9966"/><path d="M-450,-98.75867092817505C-412.10375425213357,-90.04536301787853,-295.33352518015397,-64.1518928441282,-222.62252551280147,-46.47882346639594C-149.91152584544898,-28.805754088663676,-86.91718549494949,-15.548310414609112,-13.73400199588497,7.279745338218515C59.44918150317956,30.10780109104614,142.6794937054085,66.9938112316934,216.4765754815857,90.48951105056983C290.2736572577629,113.98521086944626,356.0115018777409,135.00458148103326,429.0484886611784,148.25394425147712C502.0854754446159,161.503307021921,576.2065776257405,154.8669648063496,654.6984961822108,169.98568767323297C733.190414738681,185.10441054011633,859.1164160303684,227.46951582285325,900,238.9662814527773L 900 512 L -450 512 Z" fill="#ffcc99"/><path d="M-450,-36.23668448570599C-401.415210386221,-22.963448030067376,-251.6245001459428,15.50987922812022,-158.49126231732598,43.40273424812572C-65.35802448870916,71.29558926813121,25.718762743075857,106.28881427557707,108.79942697170091,131.120445634327C191.88009120032598,155.95207699307696,249.84991049049773,172.1000239063273,339.99272305442435,192.39252240062535C430.13553561835096,212.6850208949234,556.3217561976647,227.8823996525992,649.6563023552607,252.8754366001154C742.9908485128566,277.8684735476316,858.2760503925434,327.4381928381214,900,342.35074408572257L 900 512 L -450 512 Z" fill="#996699"/><path d="M-450,35.49083589591115C-414.66784457643337,49.31269914884403,-301.5659597520582,98.20824245614452,-238.00706745860003,118.42201541350848C-174.44817516514186,138.63578837087243,-133.54630219011645,142.70285105156842,-68.64664623925106,156.77347364009486C-3.7469902883856605,170.8440962286213,88.81009868030469,183.233871626892,151.39086824659236,202.84575094466723C213.97163781288003,222.45763026244245,249.1235200313648,253.9886196771423,306.83797115847494,274.44474954674615C364.5524222855851,294.90087941635,433.10012893997157,309.17153069768136,497.6775750092533,325.58253016229037C562.255021078535,341.9935296268994,627.2489100757077,351.35104458514587,694.3026475741655,372.91074633440013C761.3563850726232,394.4704480836544,865.7171079290276,441.2690749372466,900,454.9407406578159L 900 512 L -450 512 Z" fill="#99cc99"/><path d="M-450,93.16872336527061C-407.59888273332524,105.29710831217136,-282.61336156680284,140.36078067398088,-195.59329639995136,165.9390330466751C-108.5732312330999,191.5172854193693,-14.62049688400755,210.75196983234022,72.12039100110869,246.63823760143592C158.8612788862249,282.5245053705316,226.53903995169884,342.3082561217431,324.852030910746,381.2566396612492C423.1650218697932,420.2050232007553,566.1403419071828,451.6244613957387,661.9983367553918,480.3285388384724C757.8563316036009,509.0326162812061,860.3330561258987,541.2890100711217,900,553.4811043176516L 900 512 L -450 512 Z" fill="#336666"/><path d="M-450,155.86959064399196C-414.882031824388,170.78103338903244,-304.8527549772676,216.4957647993454,-239.29219094632785,245.33824711423495C-173.73162691538812,274.1807294291245,-120.08103802305806,304.2792908203918,-56.63661581436154,328.92448453332923C6.807806394334975,353.5696782462667,73.32893439971174,369.9206357471346,141.37434230585126,393.20940939185977C209.4197502119908,416.4981830365849,285.66587295818977,445.1742164850796,351.6358316224755,468.6571264016801C417.60579028676125,492.1400363182806,480.8454354980641,518.9732705394781,537.1940942915658,534.1068688914627C593.5427530850675,549.2404672434473,629.2601334320799,538.9691200310228,689.7277843834856,559.4587165135872C750.1954353348914,579.9483129961516,864.9546307305809,640.7801592413055,900,657.0444477868491L 900 512 L -450 512 Z" fill="#ff9966"/></svg>