{
	"asset":{
		"generator":"Khronos glTF Blender I/O v5.1.20",
		"version":"2.0"
	},
	"scene":0,
	"scenes":[
		{
			"name":"Scene",
			"nodes":[
				0,
				1,
				2,
				3
			]
		}
	],
	"nodes":[
		{
			"mesh":0,
			"name":"Cube",
			"scale":[
				10,
				1.3083391189575195,
				10
			],
			"translation":[
				1.3320480585098267,
				1.3334007263183594,
				-0.03654402494430542
			]
		},
		{
			"mesh":1,
			"name":"Cube.001",
			"scale":[
				10,
				1.3083391189575195,
				10
			],
			"translation":[
				1.3400037288665771,
				3.93160080909729,
				0.038642749190330505
			]
		},
		{
			"mesh":2,
			"name":"Plane",
			"scale":[
				8.761316299438477,
				8.761316299438477,
				8.761316299438477
			],
			"translation":[
				1.1718168258666992,
				5.197945594787598,
				-0.3201277256011963
			]
		},
		{
			"mesh":3,
			"name":"Cube.002",
			"scale":[
				10,
				1.3083391189575195,
				10
			],
			"translation":[
				1.3320480585098267,
				5.543506622314453,
				-0.03654402494430542
			]
		}
	],
	"materials":[
		{
			"doubleSided":true,
			"name":"bun material",
			"pbrMetallicRoughness":{
				"baseColorFactor":[
					0.8000229597091675,
					0.25453996658325195,
					0.04475435987114906,
					1
				],
				"metallicFactor":0,
				"roughnessFactor":0.9170854091644287
			}
		},
		{
			"doubleSided":true,
			"name":"meat",
			"pbrMetallicRoughness":{
				"baseColorFactor":[
					0.35291457176208496,
					0.1239546537399292,
					0.05090077593922615,
					1
				],
				"metallicFactor":0.14572864770889282,
				"roughnessFactor":0.9070351719856262
			}
		},
		{
			"doubleSided":true,
			"name":"cheese",
			"pbrMetallicRoughness":{
				"baseColorFactor":[
					0.8000229597091675,
					0.5958254337310791,
					0.008438917808234692,
					1
				],
				"metallicFactor":0.5628140568733215,
				"roughnessFactor":0.2487437129020691
			}
		}
	],
	"meshes":[
		{
			"name":"Mesh",
			"primitives":[
				{
					"attributes":{
						"POSITION":0,
						"NORMAL":1,
						"TEXCOORD_0":2
					},
					"indices":3,
					"material":0
				}
			]
		},
		{
			"name":"Mesh",
			"primitives":[
				{
					"attributes":{
						"POSITION":4,
						"NORMAL":5,
						"TEXCOORD_0":6
					},
					"indices":7,
					"material":1
				}
			]
		},
		{
			"name":"Plane",
			"primitives":[
				{
					"attributes":{
						"POSITION":8,
						"NORMAL":9,
						"TEXCOORD_0":10
					},
					"indices":11,
					"material":2
				}
			]
		},
		{
			"name":"Cube.005",
			"primitives":[
				{
					"attributes":{
						"POSITION":12,
						"NORMAL":13,
						"TEXCOORD_0":14
					},
					"indices":15,
					"material":0
				}
			]
		}
	],
	"accessors":[
		{
			"bufferView":0,
			"componentType":5126,
			"count":295806,
			"max":[
				0.9166668057441711,
				0.9733600616455078,
				0.9166668057441711
			],
			"min":[
				-0.9166668057441711,
				-0.9851598739624023,
				-0.9166668057441711
			],
			"type":"VEC3"
		},
		{
			"bufferView":1,
			"componentType":5126,
			"count":295806,
			"type":"VEC3"
		},
		{
			"bufferView":2,
			"componentType":5126,
			"count":295806,
			"type":"VEC2"
		},
		{
			"bufferView":3,
			"componentType":5125,
			"count":491520,
			"type":"SCALAR"
		},
		{
			"bufferView":4,
			"componentType":5126,
			"count":98304,
			"max":[
				0.9166667461395264,
				0.9340437650680542,
				0.9166667461395264
			],
			"min":[
				-0.9166666865348816,
				-0.9851598739624023,
				-0.9166667461395264
			],
			"type":"VEC3"
		},
		{
			"bufferView":5,
			"componentType":5126,
			"count":98304,
			"type":"VEC3"
		},
		{
			"bufferView":6,
			"componentType":5126,
			"count":98304,
			"type":"VEC2"
		},
		{
			"bufferView":7,
			"componentType":5125,
			"count":147456,
			"type":"SCALAR"
		},
		{
			"bufferView":8,
			"componentType":5126,
			"count":714,
			"max":[
				1.100942611694336,
				0.0012047654017806053,
				1.1641892194747925
			],
			"min":[
				-1.0061708688735962,
				-0.24346303939819336,
				-0.9938855767250061
			],
			"type":"VEC3"
		},
		{
			"bufferView":9,
			"componentType":5126,
			"count":714,
			"type":"VEC3"
		},
		{
			"bufferView":10,
			"componentType":5126,
			"count":714,
			"type":"VEC2"
		},
		{
			"bufferView":11,
			"componentType":5123,
			"count":3456,
			"type":"SCALAR"
		},
		{
			"bufferView":12,
			"componentType":5126,
			"count":83297,
			"max":[
				0.9932368993759155,
				1.7224979400634766,
				0.9877939224243164
			],
			"min":[
				-0.9491215348243713,
				-0.3901939392089844,
				-0.9545563459396362
			],
			"type":"VEC3"
		},
		{
			"bufferView":13,
			"componentType":5126,
			"count":83297,
			"type":"VEC3"
		},
		{
			"bufferView":14,
			"componentType":5126,
			"count":83297,
			"type":"VEC2"
		},
		{
			"bufferView":15,
			"componentType":5125,
			"count":491520,
			"type":"SCALAR"
		}
	],
	"bufferViews":[
		{
			"buffer":0,
			"byteLength":3549672,
			"byteOffset":0,
			"target":34962
		},
		{
			"buffer":0,
			"byteLength":3549672,
			"byteOffset":3549672,
			"target":34962
		},
		{
			"buffer":0,
			"byteLength":2366448,
			"byteOffset":7099344,
			"target":34962
		},
		{
			"buffer":0,
			"byteLength":1966080,
			"byteOffset":9465792,
			"target":34963
		},
		{
			"buffer":0,
			"byteLength":1179648,
			"byteOffset":11431872,
			"target":34962
		},
		{
			"buffer":0,
			"byteLength":1179648,
			"byteOffset":12611520,
			"target":34962
		},
		{
			"buffer":0,
			"byteLength":786432,
			"byteOffset":13791168,
			"target":34962
		},
		{
			"buffer":0,
			"byteLength":589824,
			"byteOffset":14577600,
			"target":34963
		},
		{
			"buffer":0,
			"byteLength":8568,
			"byteOffset":15167424,
			"target":34962
		},
		{
			"buffer":0,
			"byteLength":8568,
			"byteOffset":15175992,
			"target":34962
		},
		{
			"buffer":0,
			"byteLength":5712,
			"byteOffset":15184560,
			"target":34962
		},
		{
			"buffer":0,
			"byteLength":6912,
			"byteOffset":15190272,
			"target":34963
		},
		{
			"buffer":0,
			"byteLength":999564,
			"byteOffset":15197184,
			"target":34962
		},
		{
			"buffer":0,
			"byteLength":999564,
			"byteOffset":16196748,
			"target":34962
		},
		{
			"buffer":0,
			"byteLength":666376,
			"byteOffset":17196312,
			"target":34962
		},
		{
			"buffer":0,
			"byteLength":1966080,
			"byteOffset":17862688,
			"target":34963
		}
	],
	"buffers":[
		{
			"byteLength":19828768,
			"uri":"burger.bin"
		}
	]
}
